{"title":"Vice (2015) 1080p BluRay [Dual Audio] [DTS-5.1] [English + Frenc","uid":11732078,"size":3708120854,"categoryP":"video","categoryS":"hd___movies","magnet":"?xt=urn:btih:6b051374990c172eb2e16abbb0e17bb2e3e54556&amp;dn=Vice+%282015%29+1080p+BluRay+%5BDual+Audio%5D+%5BDTS-5.1%5D+%5BEnglish+%2B+Frenc&amp;tr=udp%3A%2F%2Ftracker.openbittorrent.com%3A80&amp;tr=udp%3A%2F%2Fopen.demonii.com%3A1337&amp;tr=udp%3A%2F%2Ftracker.coppersurfer.tk%3A6969&amp;tr=udp%3A%2F%2Fexodus.desync.com%3A6969","seeders":6,"leechers":4,"uploader":"kamalesh","files":2,"time":1425420873,"description":"[center][img]http://i.imgur.com/6vCGaAv.jpg[/img]\n\n[b]IMDB : [url]http://www.imdb.com/title/tt3480796/[/url][/b]\n\n[img]http://i.imgur.com/5oJTBSv.png[/img]\n\n[b] Source : Untouched BluRay Disc [BD50] [/b]\n\n[b]General\nComplete name               : Vice (2015) 1080p BluRay [Dual Audio] [DTS-5.1] [English + French] x264 -=BY @Kamalesh=-.mkv\nFormat                      : Matroska\nFormat version              : Version 4 / Version 2\nFile size                   : 3.41 GiB\nDuration                    : 1h 36mn\nOverall bit rate            : 5 060 Kbps\n\nVideo\nID                          : 1\nFormat                      : AVC\nFormat/Info                 : Advanced Video Codec\nFormat profile              : &lt;a class=&quot;__cf_email__&quot; href=&quot;/cdn-cgi/l/email-protection&quot; data-cfemail=&quot;5119383639111d657f60&quot;&gt;[email&amp;#160;protected]&lt;/a&gt;&lt;script cf-hash='f9e31' type=&quot;text/javascript&quot;&gt;\n/* &lt;![CDATA[ */!function(){try{var t=&quot;currentScript&quot;in document?document.currentScript:function(){for(var t=document.getElementsByTagName(&quot;script&quot;),e=t.length;e--;)if(t[e].getAttribute(&quot;cf-hash&quot;))return t[e]}();if(t&amp;&amp;t.previousSibling){var e,r,n,i,c=t.previousSibling,a=c.getAttribute(&quot;data-cfemail&quot;);if(a){for(e=&quot;&quot;,r=parseInt(a.substr(0,2),16),n=2;a.length-n;n+=2)i=parseInt(a.substr(n,2),16)^r,e+=String.fromCharCode(i);e=document.createTextNode(e),c.parentNode.replaceChild(e,c)}}}catch(u){}}();/* ]]&gt; */&lt;/script&gt;\nFormat settings, CABAC      : Yes\nFormat settings, ReFrames   : 5 frames\nCodec ID                    : V_MPEG4/ISO/AVC\nDuration                    : 1h 36mn\nBit rate                    : 3 500 Kbps\nWidth                       : 1 920 pixels\nHeight                      : 800 pixels\nDisplay aspect ratio        : 2.40:1\nFrame rate mode             : Constant\nFrame rate                  : 23.976 fps\nColor space                 : YUV\nChroma subsampling          : 4:2:0\nBit depth                   : 8 bits\nScan type                   : Progressive\nBits/(Pixel*Frame)          : 0.095\nStream size                 : 2.30 GiB (68%)\nWriting library             : x264 core 142 r2431 ac76440\nDefault                     : Yes\nForced                      : No\nColor primaries             : Generic film\nTransfer characteristics    : BT.709\nMatrix coefficients         : BT.709\nColor range                 : Limited\n\nAudio #1\nID                          : 2\nFormat                      : DTS\nFormat/Info                 : Digital Theater Systems\nMode                        : 16\nFormat settings, Endianness : Big\nCodec ID                    : A_DTS\nDuration                    : 1h 36mn\nBit rate mode               : Constant\nBit rate                    : 768 Kbps\nChannel(s)                  : 6 channels\nChannel positions           : Front: L C R, Side: L R, LFE\nSampling rate               : 48.0 KHz\nBit depth                   : 24 bits\nCompression mode            : Lossy\nStream size                 : 530 MiB (15%)\nTitle                       : English DTS 756 Kbps\nLanguage                    : English\nDefault                     : Yes\nForced                      : No\n\nAudio #2\nID                          : 3\nFormat                      : DTS\nFormat/Info                 : Digital Theater Systems\nMode                        : 16\nFormat settings, Endianness : Big\nCodec ID                    : A_DTS\nDuration                    : 1h 36mn\nBit rate mode               : Constant\nBit rate                    : 768 Kbps\nChannel(s)                  : 6 channels\nChannel positions           : Front: L C R, Side: L R, LFE\nSampling rate               : 48.0 KHz\nBit depth                   : 24 bits\nCompression mode            : Lossy\nStream size                 : 530 MiB (15%)\nTitle                       : French DTS 756 Kbps\nLanguage                    : French\nDefault                     : No\nForced                      : No\n\nText #1\nID                          : 4\nFormat                      : PGS\nMuxing mode                 : zlib\nCodec ID                    : S_HDMV/PGS\nCodec ID/Info               : The same subtitle format used on BDs/HD-DVDs\nTitle                       : PGS - English\nLanguage                    : English\nDefault                     : No\nForced                      : No\n\nText #2\nID                          : 5\nFormat                      : PGS\nMuxing mode                 : zlib\nCodec ID                    : S_HDMV/PGS\nCodec ID/Info               : The same subtitle format used on BDs/HD-DVDs\nTitle                       : PGS - French\nLanguage                    : French\nDefault                     : No\nForced                      : No\n[/b]\n\n[img]http://i.imgur.com/wP9F3tc.png[/img]\n\n[URL=http://someimage.com/zWOIXss][IMG]http://t1.someimage.com/zWOIXss.jpg[/IMG][/URL] [URL=http://someimage.com/Wi38Nkp][IMG]http://t1.someimage.com/Wi38Nkp.jpg[/IMG][/URL] [URL=http://someimage.com/ezWwzn0][IMG]http://t1.someimage.com/ezWwzn0.jpg[/IMG][/URL] [URL=http://someimage.com/wlz56I1][IMG]http://t1.someimage.com/wlz56I1.jpg[/IMG][/URL] [URL=http://someimage.com/PzrfIuZ][IMG]http://t1.someimage.com/PzrfIuZ.jpg[/IMG][/URL] [URL=http://someimage.com/vWryFeQ][IMG]http://t1.someimage.com/vWryFeQ.jpg[/IMG][/URL] [URL=http://someimage.com/P5JxTee][IMG]http://t1.someimage.com/P5JxTee.jpg[/IMG][/URL] [URL=http://someimage.com/SO4X6fa][IMG]http://t1.someimage.com/SO4X6fa.jpg[/IMG][/URL] [URL=http://someimage.com/OM7tf3J][IMG]http://t1.someimage.com/OM7tf3J.jpg[/IMG][/URL] [URL=http://someimage.com/6VTBsvh][IMG]http://t1.someimage.com/6VTBsvh.jpg[/IMG][/URL] [URL=http://someimage.com/JFmSLUV][IMG]http://t1.someimage.com/JFmSLUV.jpg[/IMG][/URL] [URL=http://someimage.com/BNXvLjT][IMG]http://t1.someimage.com/BNXvLjT.jpg[/IMG][/URL]  [/center]","torrent":{"xt":"urn:btih:6b051374990c172eb2e16abbb0e17bb2e3e54556","amp;dn":"Vice+%282015%29+1080p+BluRay+%5BDual+Audio%5D+%5BDTS-5.1%5D+%5BEnglish+%2B+Frenc","amp;tr":["udp%3A%2F%2Ftracker.openbittorrent.com%3A80","udp%3A%2F%2Fopen.demonii.com%3A1337","udp%3A%2F%2Ftracker.coppersurfer.tk%3A6969","udp%3A%2F%2Fexodus.desync.com%3A6969"],"infoHash":"6b051374990c172eb2e16abbb0e17bb2e3e54556","infoHashBuffer":{"type":"Buffer","data":[107,5,19,116,153,12,23,46,178,225,106,187,176,225,123,178,227,229,69,86]},"announce":[],"urlList":[]}}